HIERARCHY
ROOT joint_0
{
	OFFSET 0.000000 0.000000 0.000000
	CHANNELS 6 Xposition Yposition Zposition Zrotation Yrotation Xrotation 
	JOINT joint_1
	{
		OFFSET 6.590088 -1.122192 114.019043
		CHANNELS 3 Zrotation Yrotation Xrotation
		JOINT joint_2
		{
			OFFSET -5.956055 -0.820435 104.151001
			CHANNELS 3 Zrotation Yrotation Xrotation
			JOINT joint_3
			{
				OFFSET -7.343506 -1.103027 103.942993
				CHANNELS 3 Zrotation Yrotation Xrotation
				JOINT joint_4
				{
					OFFSET 3.109131 -2.857056 147.715942
					CHANNELS 3 Zrotation Yrotation Xrotation
					JOINT joint_5
					{
						OFFSET 28.592285 -2.852295 87.703979
						CHANNELS 3 Zrotation Yrotation Xrotation
						End Site
						{
							OFFSET 0.000000 0.000000 0.000000
						}
					}
				}
				JOINT joint_6
				{
					OFFSET -0.332520 -33.687378 82.401978
					CHANNELS 3 Zrotation Yrotation Xrotation
					JOINT joint_7
					{
						OFFSET -7.397461 -168.719177 -22.750977
						CHANNELS 3 Zrotation Yrotation Xrotation
						JOINT joint_8
						{
							OFFSET 17.065918 -24.903137 -272.721069
							CHANNELS 3 Zrotation Yrotation Xrotation
							JOINT joint_9
							{
								OFFSET 33.311279 -37.031616 -278.192993
								CHANNELS 3 Zrotation Yrotation Xrotation
								End Site
								{
									OFFSET 0.000000 0.000000 0.000000
								}
							}
						}
					}
				}
				JOINT joint_10
				{
					OFFSET 3.914307 30.461670 83.552979
					CHANNELS 3 Zrotation Yrotation Xrotation
					JOINT joint_11
					{
						OFFSET 15.543701 166.845459 -30.963013
						CHANNELS 3 Zrotation Yrotation Xrotation
						JOINT joint_12
						{
							OFFSET 35.734863 35.017700 -269.786011
							CHANNELS 3 Zrotation Yrotation Xrotation
							JOINT joint_13
							{
								OFFSET 70.506592 13.977783 -273.320007
								CHANNELS 3 Zrotation Yrotation Xrotation
								End Site
								{
									OFFSET 0.000000 0.000000 0.000000
								}
							}
						}
					}
				}
			}
		}
	}
	JOINT joint_14
	{
		OFFSET -0.314697 -95.093994 -116.004028
		CHANNELS 3 Zrotation Yrotation Xrotation
		JOINT joint_15
		{
			OFFSET -22.490723 2.017883 -455.510986
			CHANNELS 3 Zrotation Yrotation Xrotation
			JOINT joint_16
			{
				OFFSET -46.427490 7.144104 -496.360985
				CHANNELS 3 Zrotation Yrotation Xrotation
				JOINT joint_17
				{
					OFFSET 209.055420 -37.122803 -85.191002
					CHANNELS 3 Zrotation Yrotation Xrotation
					End Site
					{
						OFFSET 0.000000 0.000000 0.000000
					}
				}
			}
		}
	}
	JOINT joint_18
	{
		OFFSET 5.652832 94.642578 -116.244019
		CHANNELS 3 Zrotation Yrotation Xrotation
		JOINT joint_19
		{
			OFFSET -12.379883 -7.332642 -455.843994
			CHANNELS 3 Zrotation Yrotation Xrotation
			JOINT joint_20
			{
				OFFSET -45.227051 -8.172241 -496.457985
				CHANNELS 3 Zrotation Yrotation Xrotation
				JOINT joint_21
				{
					OFFSET 210.522949 -11.530396 -88.809004
					CHANNELS 3 Zrotation Yrotation Xrotation
					End Site
					{
						OFFSET 0.000000 0.000000 0.000000
					}
				}
			}
		}
	}
}
MOTION
Frames: 6
Frame Time: 0.016667
-3018.948486 889.612549 1184.009033 -2.403981 -4.630289 -1.159439 0.072504 0.245790 -2.499114 0.253677 -0.056116 0.558748 0.187566 0.063161 -0.372520 -0.386840 -5.160632 0.750815 0.000000 0.000000 0.000000 -0.113650 1.062826 1.222238 0.123701 0.992947 1.874287 0.076050 2.902153 3.757058 0.000000 0.000000 0.000000 3.166049 1.949127 2.249465 -0.429165 1.765060 -2.968260 0.395037 4.428911 0.696547 0.000000 0.000000 0.000000 0.262152 1.601423 0.823464 0.397200 0.855260 -2.023423 0.178183 2.072671 0.440473 0.000000 0.000000 0.000000 1.727268 3.371023 -1.433191 1.720765 -0.427580 1.417455 1.757536 1.059339 0.797440 0.000000 0.000000 0.000000 
-3018.983398 889.591980 1183.985962 -2.384765 -4.648002 -1.166501 0.061923 0.246221 -2.497162 0.243087 -0.053857 0.558849 0.176907 0.061196 -0.372486 -0.386967 -5.162030 0.751109 0.000000 0.000000 0.000000 -0.101459 1.065669 1.207753 0.123313 0.995789 1.898919 0.071991 2.917791 3.740415 0.000000 0.000000 0.000000 3.162141 1.943930 2.286470 -0.429765 1.765237 -2.983246 0.396447 4.424603 0.702639 0.000000 0.000000 0.000000 0.255990 1.611427 0.838047 0.392244 0.871612 -2.034182 0.172140 2.075593 0.438537 0.000000 0.000000 0.000000 1.724444 3.367806 -1.434295 1.716920 -0.386602 1.430537 1.756395 1.023501 0.794991 0.000000 0.000000 0.000000 
-3018.978516 889.563782 1183.951050 -2.366709 -4.665208 -1.177629 0.051102 0.237663 -2.492092 0.232123 -0.051452 0.558579 0.165959 0.059233 -0.371566 -0.387008 -5.159844 0.751432 0.000000 0.000000 0.000000 -0.084293 1.072428 1.186041 0.122187 1.002541 1.934435 0.065346 2.944101 3.714138 0.000000 0.000000 0.000000 3.158218 1.941827 2.328903 -0.430635 1.769563 -3.004892 0.398657 4.423619 0.711254 0.000000 0.000000 0.000000 0.250170 1.626983 0.859277 0.388036 0.880208 -2.048378 0.166602 2.082061 0.437434 0.000000 0.000000 0.000000 1.722360 3.364090 -1.432481 1.713744 -0.340950 1.446810 1.756408 0.980603 0.792641 0.000000 0.000000 0.000000 
-3018.847168 889.521240 1183.899048 -2.344394 -4.685362 -1.190814 0.037708 0.218059 -2.485629 0.218543 -0.049418 0.556867 0.152544 0.058258 -0.370225 -0.387669 -5.154583 0.753941 0.000000 0.000000 0.000000 -0.068297 1.087579 1.154000 0.120837 1.016831 1.976485 0.058771 2.974694 3.692705 0.000000 0.000000 0.000000 3.161056 1.946217 2.383985 -0.432873 1.780809 -3.035233 0.399673 4.428312 0.714315 0.000000 0.000000 0.000000 0.242638 1.654765 0.882248 0.382025 0.886586 -2.060702 0.159544 2.083960 0.434904 0.000000 0.000000 0.000000 1.718017 3.374233 -1.428653 1.708664 -0.301403 1.465612 1.754830 0.932602 0.789346 0.000000 0.000000 0.000000 
-3018.644287 889.464783 1183.822998 -2.310112 -4.711905 -1.206282 0.018628 0.181283 -2.480175 0.199414 -0.052158 0.553875 0.133912 0.062258 -0.367042 -0.389622 -5.130212 0.761772 0.000000 0.000000 0.000000 -0.052161 1.104809 1.108316 0.119457 1.032195 2.028483 0.050236 3.023153 3.673813 0.000000 0.000000 0.000000 3.167669 1.951602 2.454452 -0.438149 1.794587 -3.081457 0.401925 4.451225 0.719034 0.000000 0.000000 0.000000 0.230212 1.692919 0.905399 0.370815 0.898368 -2.067759 0.147908 2.073020 0.428235 0.000000 0.000000 0.000000 1.708942 3.397270 -1.421483 1.699249 -0.265170 1.484348 1.749154 0.878525 0.783996 0.000000 0.000000 0.000000 
-3018.313965 889.393982 1183.730957 -2.271516 -4.741266 -1.223490 -0.002737 0.132655 -2.474072 0.178011 -0.054566 0.549536 0.113177 0.067124 -0.362888 -0.392334 -5.102298 0.772133 0.000000 0.000000 0.000000 -0.037960 1.130712 1.052091 0.117837 1.055270 2.086883 0.041838 3.075462 3.659816 0.000000 0.000000 0.000000 3.179790 1.963459 2.537036 -0.444658 1.815444 -3.136296 0.403102 4.479530 0.718710 0.000000 0.000000 0.000000 0.215889 1.743169 0.929747 0.357565 0.908057 -2.072438 0.134568 2.057711 0.420098 0.000000 0.000000 0.000000 1.697737 3.434240 -1.412549 1.688069 -0.235467 1.505315 1.741973 0.820102 0.777779 0.000000 0.000000 0.000000 
